HIERARCHY
ROOT root     
{
	OFFSET 0.0000 0.0000 0.0000
	CHANNELS 6 Xposition Yposition Zposition Zrotation Yrotation Xrotation
	JOINT pelvis   
	{
		OFFSET 0.0000 0.0000 0.0000
		CHANNELS 3 Zrotation Yrotation Xrotation
		JOINT thorax   
		{
			OFFSET 0.0000 23.0750 -5.0000
			CHANNELS 3 Zrotation Yrotation Xrotation
			JOINT rclavicle
			{
				OFFSET 0.0000 28.0009 0.0000
				CHANNELS 3 Zrotation Yrotation Xrotation
				JOINT rhumerus 
				{
					OFFSET -18.5725 5.5939 0.0000
					CHANNELS 3 Zrotation Yrotation Xrotation
					JOINT rradius  
					{
						OFFSET -24.8459 0.0000 0.0000
						CHANNELS 3 Zrotation Yrotation Xrotation
						JOINT rhand    
						{
							OFFSET -24.5477 0.0000 0.0000
							CHANNELS 3 Zrotation Yrotation Xrotation
							End Site
							{
								OFFSET -8.1826 0.0000 0.0000
							}
						}
					}
				}
			}
			JOINT lclavicle
			{
				OFFSET 0.0000 28.0009 0.0000
				CHANNELS 3 Zrotation Yrotation Xrotation
				JOINT lhumerus 
				{
					OFFSET 18.5725 5.5939 0.0000
					CHANNELS 3 Zrotation Yrotation Xrotation
					JOINT lradius  
					{
						OFFSET 24.8459 0.0000 0.0000
						CHANNELS 3 Zrotation Yrotation Xrotation
						JOINT lhand    
						{
							OFFSET 24.5477 0.0000 0.0000
							CHANNELS 3 Zrotation Yrotation Xrotation
							End Site
							{
								OFFSET 8.1826 0.0000 0.0000
							}
						}
					}
				}
			}
			JOINT head     
			{
				OFFSET 0.0000 35.2030 0.0000
				CHANNELS 3 Zrotation Yrotation Xrotation
				End Site
				{
					OFFSET 0.0000 11.7343 0.0000
				}
			}
		}
		JOINT rfemur   
		{
			OFFSET -8.2817 0.0000 0.0000
			CHANNELS 3 Zrotation Yrotation Xrotation
			JOINT rtibia   
			{
				OFFSET 0.0000 -43.3627 0.0000
				CHANNELS 3 Zrotation Yrotation Xrotation
				JOINT rfoot    
				{
					OFFSET 0.0000 -38.2947 0.0000
					CHANNELS 3 Zrotation Yrotation Xrotation
					JOINT rtoes    
					{
						OFFSET 0.0000 0.0000 16.6054
						CHANNELS 3 Zrotation Yrotation Xrotation
						End Site
						{
							OFFSET 0.0000 0.0000 5.5351
						}
					}
				}
			}
		}
		JOINT lfemur   
		{
			OFFSET 8.2817 0.0000 0.0000
			CHANNELS 3 Zrotation Yrotation Xrotation
			JOINT ltibia   
			{
				OFFSET 0.0000 -43.3627 0.0000
				CHANNELS 3 Zrotation Yrotation Xrotation
				JOINT lfoot    
				{
					OFFSET 0.0000 -38.2947 0.0000
					CHANNELS 3 Zrotation Yrotation Xrotation
					JOINT ltoes    
					{
						OFFSET 0.0000 0.0000 16.6054
						CHANNELS 3 Zrotation Yrotation Xrotation
						End Site
						{
							OFFSET 0.0000 0.0000 5.5351
						}
					}
				}
			}
		}
	}
}
MOTION
Frames: 21
Frame Time: .0333333
2.3865 86.699 1.2597 -161.17 66.488 -145.803 0 -0 0 6.32408 -8.52183 -6.54887 24.2571 -11.442 -2.87493e-05 46.0392 2.86224 2.2467 -180 79.4957 -180 4.94151 8.25591 0.356904 -22.1159 14.1485 -0.00017261 -46.7512 -14.6843 20.7021 180 -75.6553 -180 9.06444 -3.64111 -0.288707 -2.55821 26.3717 -5.47337 -2.77956 -1.5663 -31.9878 -0 -0 30.7692 -2.02159e-06 -8.88314 10.7029 -1.66253 1.48088e-05 -43.3528 -4.29168 -7.96979 -12.3064 -0 -0 20.2272 -1.33597e-06 1.66335 -2.68667 -0.0779995 1.67132e-08 -7.54076 
2.9951 86.662 1.0531 -161.795 65.8419 -146.317 0 -0 0 6.40981 -8.78868 -6.5175 24.2597 -11.4618 2.33154e-05 46.1794 2.66334 1.25919 -180 79.2568 -180 4.8264 8.1975 0.346102 -21.7865 13.9995 -0.000124804 -46.4258 -15.2956 20.7561 180 -74.9799 180 9.03418 -3.66269 -0.289497 -3.50217 26.0208 -6.17696 -2.70604 -1.1811 -32.4559 -0 -0 29.4713 -5.95535e-06 -8.14351 10.4629 -1.48864 -5.53431e-06 -43.728 -4.16508 -8.41671 -12.0334 -0 -0 20.3992 -6.15271e-07 1.44041 -2.7267 -0.0685004 2.90833e-08 -7.84029 
3.6078 86.619 0.8389 -162.398 65.223 -146.788 0 -0 0 6.48259 -9.04889 -6.52414 24.2712 -11.4765 -1.5815e-05 46.3668 2.47541 0.274212 -180 79.0576 -180 4.70619 8.10695 0.333699 -21.4681 13.8676 3.15495e-05 -46.1235 -15.8363 20.7885 180 -74.3244 -180 8.98934 -3.68817 -0.29 -4.44282 25.664 -6.85505 -2.61617 -0.815703 -32.9483 -0 -0 28.1922 8.39608e-06 -7.21175 10.2379 -1.28845 -1.70228e-05 -44.6721 -4.05124 -8.86829 -11.7757 -0 -0 20.5728 7.89664e-07 1.22857 -2.76668 -0.0593003 5.3371e-08 -8.18083 
4.2281 86.572 0.6171 -162.967 64.6281 -147.212 0 -0 0 6.55306 -9.30416 -6.56199 24.2879 -11.4872 -9.53029e-07 46.5917 2.30606 -0.702824 -180 78.8949 -180 4.57967 8.00576 0.320595 -21.1661 13.7527 -1.05846e-05 -45.8473 -16.3015 20.8005 180 -73.6891 -180 8.92713 -3.71864 -0.290395 -5.385 25.3053 -7.507 -2.49563 -0.47729 -33.4455 -0 -0 26.9158 -7.55029e-06 -6.07136 10.0527 -1.0636 -7.70284e-06 -46.2063 -3.94499 -9.31149 -11.5221 -0 -0 20.742 -8.95172e-07 1.0239 -2.80686 -0.0501004 1.88228e-08 -8.56959 
4.8604 86.518 0.3879 -163.489 64.0555 -147.589 0 -0 0 6.63024 -9.55603 -6.62461 24.3072 -11.4776 -2.23099e-06 46.8542 2.13358 -1.68078 -180 78.7553 -180 4.44815 7.91591 0.307895 -20.8785 13.6512 7.26396e-05 -45.6009 -16.6792 20.7948 180 -73.0728 -180 8.84738 -3.75415 -0.290503 -6.33131 24.9448 -8.13076 -2.33 -0.171605 -33.9244 -0 -0 25.6174 -1.58845e-06 -4.71674 9.93677 -0.815695 -2.99898e-06 -48.2988 -3.84219 -9.73343 -11.2572 -0 -0 20.8988 -7.82617e-08 0.823202 -2.84015 -0.0407998 1.89718e-08 -9.08761 
5.5091 86.457 0.1506 -163.968 63.4996 -147.933 0 -0 0 6.71472 -9.8069 -6.69947 24.3366 -11.4726 1.39844e-05 47.14 1.99961 -2.63291 -180 78.664 -180 4.30577 7.85577 0.295797 -20.6128 13.5632 1.38697e-05 -45.381 -16.9707 20.7761 180 -72.4722 -180 8.75027 -3.78855 -0.290001 -7.28239 24.5842 -8.72755 -2.11233 0.100618 -34.3586 -0 -0 24.2872 9.74821e-06 -3.15947 9.90651 -0.544103 -4.1654e-07 -50.7265 -3.74363 -10.1233 -10.9622 -0 -0 21.0375 3.37457e-07 0.626295 -2.87854 -0.0314999 6.61995e-09 -9.63535 
6.1791 86.387 -0.0954 -164.399 62.9598 -148.25 0 -0 0 6.80844 -10.0585 -6.77873 24.3726 -11.4568 -7.41042e-05 47.4456 1.88042 -3.5663 -180 78.6073 -180 4.15411 7.83825 0.284698 -20.3639 13.4851 2.46526e-05 -45.1861 -17.1678 20.7459 180 -71.8857 180 8.63882 -3.81915 -0.288596 -8.23679 24.2202 -9.29495 -1.83834 0.342196 -34.7225 -0 -0 22.9171 -7.01718e-06 -1.42915 9.98624 -0.247897 1.33052e-06 -53.2977 -3.64887 -10.4717 -10.6214 -0 -0 21.1543 2.25342e-07 0.432496 -2.91897 -0.0220006 -7.9318e-08 -10.2612 
6.8739 86.306 -0.3513 -164.787 62.435 -148.556 0 -0 0 6.9065 -10.313 -6.85426 24.4163 -11.4364 7.47513e-05 47.7618 1.78429 -4.46921 -180 78.5934 -180 3.98876 7.86883 0.274399 -20.1334 13.4147 -9.23522e-05 -45.0169 -17.2693 20.7105 180 -71.3087 -180 8.51682 -3.84071 -0.286103 -9.19095 23.8515 -9.83176 -1.51383 0.560592 -34.9961 -0 -0 21.5145 6.22245e-07 0.426303 10.189 0.0754019 -3.60769e-07 -55.7932 -3.56159 -10.7736 -10.2219 -0 -0 21.2503 7.35233e-09 0.2436 -2.96839 -0.0125997 3.03244e-08 -10.9554 
7.5964 86.21 -0.6187 -165.146 61.9215 -148.872 0 -0 0 7.00323 -10.5724 -6.91854 24.4685 -11.4089 -2.64255e-05 48.0883 1.70492 -5.33844 -180 78.6228 -180 3.80854 7.94573 0.264596 -19.9192 13.3505 7.3498e-05 -44.8652 -17.2768 20.6721 180 -70.7467 -180 8.38889 -3.84915 -0.282408 -10.1403 23.4758 -10.3361 -1.15181 0.766805 -35.1615 -0 -0 20.1038 -5.05354e-06 2.3414 10.524 0.427892 -3.1617e-06 -58.0888 -3.48658 -11.0267 -9.75365 -0 -0 21.327 -6.13297e-08 0.0627 -3.02672 -0.00329992 1.39939e-08 -11.7627 
8.3458 86.097 -0.8989 -165.486 61.4206 -149.205 0 -0 0 7.08984 -10.8391 -6.97672 24.5293 -11.3824 1.96657e-05 48.4152 1.64961 -6.15972 -180 78.6943 -180 3.61039 8.05952 0.254391 -19.7231 13.2904 -3.64543e-05 -44.7272 -17.1917 20.6358 180 -70.1898 -180 8.2583 -3.84102 -0.277397 -11.0792 23.0932 -10.8042 -0.775893 0.973789 -35.2269 -0 -0 18.7308 -5.01215e-06 4.23712 10.9728 0.807891 3.95112e-07 -59.9372 -3.43002 -11.2333 -9.22238 -0 -0 21.3957 1.17685e-07 -0.1091 -3.11396 0.00590012 3.63253e-08 -12.5339 
9.1207 85.965 -1.193 -165.819 60.9314 -149.567 0 -0 0 7.16278 -11.1131 -7.03131 24.597 -11.3535 -6.31401e-05 48.7442 1.60915 -6.93107 -180 78.7976 -180 3.39392 8.19742 0.243294 -19.5478 13.2352 -8.2066e-05 -44.5939 -17.0207 20.6041 180 -69.6478 -180 8.12793 -3.81584 -0.271198 -12.0039 22.7028 -11.2332 -0.4113 1.19883 -35.2016 -0 -0 17.4534 -2.14396e-06 6.02511 11.5117 1.20669 4.4952e-06 -61.3137 -3.39506 -11.3954 -8.63496 -0 -0 21.4671 1.40491e-08 -0.270601 -3.23077 0.0153001 1.277e-07 -13.3019 
9.9174 85.813 -1.501 -166.149 60.453 -149.949 0 -0 0 7.22214 -11.3932 -7.09209 24.6657 -11.3221 -4.28673e-05 49.0738 1.58056 -7.64722 -180 78.939 -180 3.15919 8.34475 0.230499 -19.3991 13.1867 5.56851e-05 -44.4579 -16.7729 20.5789 180 -69.1163 -180 7.99811 -3.77496 -0.263993 -12.9142 22.3089 -11.6214 -0.0855935 1.46259 -35.1114 -0 -0 16.3378 -3.25811e-05 7.61362 12.095 1.60444 2.29802e-05 -62.1784 -3.38142 -11.5155 -8.00802 -0 -0 21.5555 -3.95624e-07 -0.424198 -3.38071 0.0250004 5.11949e-08 -14.0635 
10.731 85.644 -1.8221 -166.478 59.9865 -150.344 0 -0 0 7.27462 -11.6772 -7.17106 24.7315 -11.2883 3.0748e-05 49.4024 1.56254 -8.3036 -180 79.11 -180 2.90783 8.48746 0.215803 -19.2862 13.1482 0.000120512 -44.3155 -16.4587 20.5661 180 -68.6115 -180 7.86726 -3.72195 -0.256002 -13.8106 21.9141 -11.9663 0.175409 1.78898 -34.9891 -0 -0 15.4569 6.26702e-06 8.91308 12.6657 1.96938 -1.05818e-05 -62.5233 -3.38366 -11.5953 -7.36443 -0 -0 21.6742 -5.52367e-09 -0.575804 -3.56526 0.0358002 -6.07381e-08 -14.7843 
11.555 85.457 -2.1545 -166.796 59.5277 -150.732 0 -0 0 7.33121 -11.9582 -7.28157 24.7881 -11.2526 3.7104e-05 49.7334 1.55534 -8.89725 -180 79.316 -180 2.64257 8.61439 0.199106 -19.2201 13.1247 0.000126229 -44.1611 -16.091 20.5645 180 -68.1363 180 7.7314 -3.66117 -0.247497 -14.6966 21.5261 -12.2672 0.351391 2.2021 -34.8733 -0 -0 14.8803 -4.91305e-05 9.8475 13.1557 2.2625 -6.34849e-05 -62.3332 -3.39281 -11.6341 -6.72963 -0 -0 21.8404 3.91699e-07 -0.734298 -3.77937 0.0484001 -1.64462e-08 -15.4894 
12.385 85.258 -2.4962 -167.09 59.0773 -151.084 0 -0 0 7.40609 -12.2309 -7.43451 24.831 -11.2147 -8.85096e-05 50.0649 1.56059 -9.42531 -180 79.5524 -180 2.36765 8.71854 0.180496 -19.2084 13.1198 8.72264e-05 -43.9943 -15.6801 20.5779 180 -67.7059 -180 7.58554 -3.59913 -0.2387 -15.5729 21.1534 -12.5233 0.430874 2.71905 -34.7999 -0 -0 14.6698 1.97546e-05 10.3661 13.5014 2.44541 -1.78946e-05 -61.6099 -3.3972 -11.6318 -6.12609 -0 -0 22.0622 3.06429e-07 -0.909704 -4.00909 0.0636014 -7.27358e-08 -16.2314 
13.214 85.05 -2.8455 -167.355 58.6326 -151.391 0 -0 0 7.51072 -12.4921 -7.63676 24.8537 -11.1753 7.76766e-06 50.3999 1.58158 -9.88573 -180 79.8211 -180 2.08823 8.79809 0.160702 -19.2591 13.1371 -2.30634e-05 -43.8208 -15.2366 20.6074 180 -67.3379 -180 7.4239 -3.54158 -0.229794 -16.4451 20.8044 -12.7355 0.413618 3.34125 -34.8041 -0 -0 14.8711 -5.6283e-07 10.4561 13.6405 2.49215 -4.39126e-05 -60.3517 -3.38659 -11.591 -5.57075 -0 -0 22.3466 -3.30722e-07 -1.11109 -4.25338 0.0824003 -1.10982e-07 -16.8796 
14.042 84.837 -3.2023 -167.582 58.193 -151.644 0 -0 0 7.65158 -12.7379 -7.88506 24.8536 -11.1344 -6.62745e-05 50.7392 1.6218 -10.2771 -180 80.1199 -180 1.80886 8.85543 0.140096 -19.3709 13.1768 9.95596e-05 -43.6515 -14.7665 20.655 180 -67.0433 -180 7.24145 -3.49318 -0.221101 -17.3086 20.4867 -12.9036 0.312964 4.04996 -34.904 -0 -0 15.5105 2.31533e-05 10.1512 13.5269 2.39807 -5.77519e-05 -58.5809 -3.35521 -11.5171 -5.06462 -0 -0 22.6866 -3.53233e-07 -1.34177 -4.47372 0.104701 -3.54775e-08 -17.6332 
14.867 84.624 -3.5683 -167.778 57.7556 -151.853 0 -0 0 7.82708 -12.9695 -8.17037 24.8308 -11.0933 -9.44518e-05 51.0867 1.68566 -10.5986 -180 80.4578 -180 1.53467 8.89621 0.119398 -19.5401 13.242 -0.000106305 -43.5026 -14.2743 20.722 180 -66.8418 -180 7.03445 -3.45741 -0.212604 -18.1588 20.2076 -13.0277 0.152286 4.80373 -35.1003 -0 -0 16.5867 1.40705e-05 9.52708 13.1317 2.18346 -9.78612e-06 -56.3574 -3.3046 -11.4217 -4.59893 -0 -0 23.0705 -7.06106e-07 -1.5997 -4.65538 0.129902 8.82813e-08 -18.4093 
15.688 84.415 -3.9466 -167.951 57.3151 -152.038 0 -0 0 8.02881 -13.1905 -8.47819 24.7841 -11.0516 -6.76453e-05 51.4426 1.77345 -10.85 -180 80.8422 -180 1.26899 8.92799 0.099099 -19.7512 13.3213 3.28555e-07 -43.3974 -13.7481 20.8129 180 -66.7512 -180 6.80127 -3.43564 -0.204205 -18.9862 19.9729 -13.1058 -0.0385838 5.54743 -35.3771 -0 -0 18.0607 2.83526e-05 8.68505 12.458 1.8873 -3.10257e-06 -53.8019 -3.24095 -11.3202 -4.1559 -0 -0 23.4831 7.2703e-07 -1.87861 -4.78275 0.156704 1.71647e-06 -19.1292 
16.509 84.213 -4.342 -168.107 56.8696 -152.226 0 -0 0 8.24254 -13.4048 -8.7756 24.719 -11.0138 -3.77535e-06 51.8118 1.89577 -11.0312 -180 81.2702 -180 1.01539 8.95725 0.0794996 -19.9993 13.4318 -9.22725e-05 -43.3466 -13.2208 20.932 180 -66.792 -180 6.54575 -3.42383 -0.195802 -19.7807 19.784 -13.1415 -0.225825 6.22827 -35.687 -0 -0 19.8557 4.36313e-05 7.73198 11.5359 1.55519 2.52846e-06 -51.0833 -3.17452 -11.2269 -3.69653 -0 -0 23.8933 1.65427e-06 -2.15805 -4.78816 0.180198 -8.51289e-07 -20.1818 
17.332 84.024 -4.7561 -168.258 56.4105 -152.437 0 -0 0 8.46172 -13.6204 -9.05338 24.6399 -10.9759 2.14407e-05 52.1892 2.04414 -11.1446 -180 81.7499 -180 0.773507 8.99058 0.0608006 -20.265 13.5441 -1.28122e-05 -43.3751 -12.6528 21.073 180 -66.967 -180 6.27084 -3.41996 -0.187401 -20.5249 19.641 -13.1278 -0.381061 6.80664 -35.9793 -0 -0 21.8504 2.65045e-06 6.7494 10.4313 1.22749 -3.49298e-06 -48.4474 -3.10707 -11.149 -3.20901 -0 -0 24.292 -1.06393e-07 -2.4344 -4.67041 0.198301 8.85506e-07 -21.4367 
